<svg id="Layer_1" data-name="Layer 1" xmlns="http://www.w3.org/2000/svg" xmlns:xlink="http://www.w3.org/1999/xlink" viewBox="0 0 128 128"><defs><linearGradient id="linear-gradient" x1="64" y1="128" x2="64" gradientUnits="userSpaceOnUse"><stop offset="0" stop-color="#7d49d5"/><stop offset="1" stop-color="#6a53ed" stop-opacity="0.8"/></linearGradient><linearGradient id="linear-gradient-2" x1="37.09" y1="128.91" x2="44.26" y2="122.71" gradientTransform="translate(156.16 -45.2) rotate(57.82)" gradientUnits="userSpaceOnUse"><stop offset="0" stop-opacity="0.3"/><stop offset="1" stop-color="#201600" stop-opacity="0"/><stop offset="1"/></linearGradient><linearGradient id="linear-gradient-3" x1="26.34" y1="196.3" x2="34.48" y2="191.5" gradientTransform="translate(67.65 -123.85) rotate(13.55)" xlink:href="#linear-gradient-2"/><linearGradient id="linear-gradient-4" x1="64.33" y1="187.15" x2="72.47" y2="182.34" gradientTransform="translate(67.65 -123.85) rotate(13.55)" xlink:href="#linear-gradient-2"/></defs><title>Group 1</title><rect id="_Path_" data-name="&lt;Path&gt;" width="128" height="128" rx="8.89" ry="8.89" style="fill:url(#linear-gradient)"/><polygon points="93.33 95.11 73.78 95.11 93.33 32.89 112.89 32.89 93.33 95.11" style="fill:#c6000f"/><polygon points="93.33 95.11 73.78 95.11 54.22 32.89 73.78 32.89 93.33 95.11" style="fill:#c6000f"/><polygon points="54.22 95.11 34.67 95.11 54.22 32.89 73.78 32.89 54.22 95.11" style="fill:#c6000f"/><polygon points="54.22 95.11 34.67 95.11 15.11 32.89 34.67 32.89 54.22 95.11" style="fill:#c6000f"/><polygon points="64 64 73.78 32.89 78.67 48.45 68.89 79.56 64 64" style="fill:url(#linear-gradient-2)"/><polygon points="54.25 95.11 44.47 64 49.33 48.45 59.11 79.56 54.25 95.11" style="fill:url(#linear-gradient-3)"/><polygon points="93.33 95.11 83.56 64 88.42 48.45 98.2 79.56 93.33 95.11" style="fill:url(#linear-gradient-4)"/></svg>